<svg width="153" height="28" viewBox="0 0 153 28" fill="none" xmlns="http://www.w3.org/2000/svg">
<g clip-path="url(#clip0_179_2143)">
<path d="M136.944 8.84625C140.618 8.84625 144.294 8.85536 147.969 8.84365C151.26 8.83324 152.862 10.8612 152.941 13.6064C153.057 17.6284 152.96 21.657 152.984 25.683C152.988 26.2323 152.846 26.451 152.273 26.3716C152.003 26.3338 151.717 26.3312 151.448 26.3716C150.849 26.4627 150.752 26.1959 150.754 25.6726C150.776 21.9447 150.768 18.2181 150.765 14.4902C150.764 12.5598 149.898 11.309 148.263 10.938C147.826 10.8378 147.354 10.8625 146.898 10.8612C144.877 10.8534 142.855 10.8885 140.835 10.8417C140.137 10.8261 139.967 11.0265 139.971 11.6916C140.001 16.224 139.957 20.7576 140.012 25.2886C140.022 26.2011 139.77 26.3755 138.867 26.408C137.846 26.4432 137.758 26.0592 137.765 25.2379C137.799 20.7355 137.765 16.2318 137.797 11.7294C137.802 11.0239 137.61 10.8326 136.884 10.8417C133.852 10.882 130.821 10.8768 127.789 10.843C127.131 10.8352 126.975 11.0395 126.979 11.6513C127.005 16.2136 126.966 20.7758 127.021 25.3381C127.031 26.2349 126.755 26.5096 125.899 26.3703C125.691 26.3364 125.469 26.3456 125.257 26.3703C124.827 26.4184 124.676 26.2701 124.677 25.8301C124.691 20.3437 124.696 14.8559 124.675 9.36951C124.672 8.70307 125.093 8.85276 125.461 8.85276C129.289 8.84886 133.117 8.85016 136.945 8.85016L136.944 8.84625Z" fill="black"/>
<path d="M121.492 17.5867C121.492 20.242 121.477 22.8961 121.504 25.5501C121.51 26.1255 121.429 26.3832 120.729 26.3793C115.307 26.3493 109.883 26.4248 104.463 26.3389C101.405 26.2908 99.5013 24.7678 99.4492 21.4395C99.3877 17.5333 99.4492 13.6245 99.4185 9.71692C99.4131 9.04267 99.5602 8.71075 100.306 8.83962C100.484 8.87086 100.676 8.86825 100.855 8.83962C101.526 8.73418 101.657 9.03356 101.652 9.63752C101.624 13.3056 101.633 16.9749 101.641 20.6442C101.644 22.0175 101.998 23.2449 103.351 23.953C103.92 24.2511 104.557 24.3526 105.205 24.3526C109.616 24.3526 114.027 24.3357 118.438 24.3669C119.134 24.3721 119.305 24.1834 119.301 23.517C119.271 18.9235 119.296 14.33 119.273 9.73645C119.271 9.10125 119.345 8.78104 120.138 8.82139C121.487 8.88908 121.489 8.83441 121.489 10.1569C121.489 12.6326 121.489 15.1083 121.489 17.5841L121.492 17.5867Z" fill="black"/>
<path d="M32.5691 24.0077C29.3638 26.6605 25.6225 27.668 21.4721 27.4792C20.8813 27.4519 20.8506 27.1733 20.8533 26.7438C20.864 25.3133 20.8653 23.8828 20.8533 22.4523C20.8506 22.1438 20.9896 21.7832 20.6234 21.5554C19.9136 21.3276 19.1851 21.5034 18.466 21.4578C17.9928 21.4279 17.4394 21.5724 17.279 20.928C17.1173 20.2785 17.2162 19.7045 17.8391 19.2854C18.2107 19.0355 18.6077 18.9639 19.0421 18.9547C19.4912 18.9456 19.9577 19.0341 20.3747 18.7881C20.9669 18.2987 20.9107 17.5542 21.13 16.9255C22.0549 14.2727 23.7739 12.3033 26.3416 11.0395C26.6678 10.8793 27.0033 10.7349 27.3856 10.7713C27.9496 10.9002 27.9082 11.1917 27.5633 11.5106C27.2332 11.8152 26.8736 12.0899 26.5528 12.4049C26.3697 12.5845 26.0649 12.7446 26.2988 13.0596C26.4993 13.3316 26.7827 13.2431 27.0447 13.1468C27.5286 12.9698 28.0165 12.8045 28.5084 12.6535C28.8706 12.5429 29.2943 12.4036 29.4921 12.9294C29.2315 13.3629 28.7396 13.4045 28.3239 13.5568C26.2387 14.3209 24.9301 15.797 24.1896 17.7989C24.1094 18.015 23.9543 18.2714 24.1361 18.4731C24.3299 18.6879 24.5973 18.5148 24.8192 18.4549C25.8698 18.1699 26.7426 17.5958 27.5326 16.8734C27.9015 16.535 28.1434 16.0443 28.6901 15.905C29.2703 16.1497 28.9454 16.4829 28.7369 16.7394C28.3025 17.273 27.8761 17.8132 27.4497 18.3534C27.2826 18.5643 27.0995 18.7686 27.0193 19.0289C26.9418 19.2802 26.772 19.5847 26.9872 19.7839C27.2399 20.0195 27.4711 19.698 27.713 19.616C28.0753 19.4936 28.4536 18.9183 28.8078 19.6316C28.7343 20.0377 28.384 20.1913 28.0793 20.3827C27.0915 21.0009 26.0115 21.4292 24.882 21.6973C24.1161 21.8795 23.8367 22.2544 23.834 23.0042C23.8287 24.6377 23.8568 24.6533 25.5222 24.3279C27.3321 23.9739 28.9067 23.1565 30.4051 22.1581C30.7058 21.9576 30.9705 21.696 31.3488 21.627C31.9115 21.7155 31.6749 22.0318 31.5025 22.2557C31.1162 22.7542 30.6403 23.1721 30.1244 23.5483C29.7367 23.8307 29.178 24.216 29.4921 24.6638C29.7835 25.079 30.3877 24.7562 30.8248 24.5492C31.1817 24.38 31.4824 24.1132 31.838 23.9453C32.0759 23.8333 32.37 23.5339 32.5705 24.0077H32.5691Z" fill="black"/>
<path d="M84.0989 26.3651C82.0151 26.3651 79.9325 26.3651 77.8487 26.3651C74.6995 26.3638 72.9592 24.8851 72.6517 21.8288C72.2347 17.6662 72.5809 13.4892 72.4726 9.32002C72.4646 8.9881 72.5689 8.87096 72.9324 8.83451C74.8546 8.64577 74.8532 8.63276 74.8532 10.4798C74.8532 13.881 74.8532 17.2809 74.8532 20.6821C74.8532 23.1552 76.0723 24.3488 78.6119 24.3514C82.6567 24.3553 86.7001 24.367 90.7448 24.3384C91.3971 24.3332 91.6538 24.4347 91.615 25.1467C91.5482 26.3611 91.603 26.3637 90.3492 26.3637C88.2653 26.3637 86.1828 26.3637 84.0989 26.3637V26.3651Z" fill="black"/>
<path d="M20.7932 19.0029C20.2264 19.4389 19.5675 19.1786 18.9566 19.1994C18.3885 19.2177 17.9247 19.4129 17.6173 19.819C17.3606 20.1575 17.4368 20.6326 17.5611 21.0204C17.7015 21.4591 18.1479 21.3289 18.4981 21.3667C19.2052 21.4435 19.9471 21.1675 20.6248 21.5541C19.8936 21.5697 19.1611 21.6309 18.434 21.5867C17.7643 21.5463 17.5224 21.7311 17.5504 22.421C17.6066 23.845 17.5504 25.2729 17.5812 26.6995C17.5932 27.2436 17.4876 27.4844 16.8393 27.4805C14.6793 27.4662 12.5299 27.4467 10.5142 26.542C10.4741 26.4066 10.5369 26.2999 10.6466 26.2439C11.3389 25.886 11.4205 25.394 11.0262 24.7666C10.8684 24.5167 10.6679 24.2186 11.1679 24.078C11.9926 24.1301 12.7518 24.4984 13.5992 24.4958C14.3237 24.4932 14.718 24.3006 14.6352 23.5339C14.6164 23.3569 14.6178 23.1747 14.6352 22.9976C14.7113 22.2583 14.4333 21.8873 13.6327 21.6986C12.5085 21.4331 11.4098 21.027 10.422 20.3996C10.1413 20.2212 9.82985 20.0741 9.70287 19.7383C9.67881 19.5847 9.68816 19.4442 9.86193 19.37C10.7334 18.9977 10.8056 18.8024 10.4688 17.9551C10.3217 17.5867 9.89267 17.1806 10.5102 16.8278C11.2748 17.2014 11.9084 17.778 12.6903 18.1321C13.2236 18.3742 13.7556 18.5655 14.5162 18.5929C13.7663 16.3007 12.562 14.5317 10.2883 13.5776C9.94213 13.4319 9.48098 13.4293 9.32593 12.9802C9.33261 12.8162 9.42351 12.7147 9.57321 12.6457C10.6238 12.1654 10.6559 11.8412 9.73227 11.0772C9.50905 10.8924 9.13479 10.7218 9.66811 10.4602C10.4207 10.4055 11.1384 10.6203 11.7947 10.9015C14.6739 12.138 16.5332 14.2727 17.4341 17.2027C17.4782 17.3446 17.5077 17.4917 17.5478 17.6349C17.8605 18.7491 17.8605 18.7309 19.0261 18.7647C19.6196 18.7816 20.2532 18.5929 20.7945 19.0029H20.7932Z" fill="black"/>
<path d="M57.3897 26.3651C55.2777 26.3651 53.1658 26.3664 51.0525 26.3651C47.6975 26.3625 45.7633 24.5024 45.754 21.2444C45.7433 17.3993 45.77 13.5543 45.7353 9.70922C45.7286 9.01284 45.9117 8.72127 46.6362 8.84363C46.7552 8.86315 46.8835 8.86315 47.0024 8.84363C47.7416 8.72257 47.9876 8.97379 47.9769 9.74176C47.9314 13.1391 47.9541 16.5376 47.9608 19.9349C47.9608 20.3502 47.9889 20.768 48.0343 21.1819C48.2683 23.3179 49.4218 24.3423 51.6514 24.3501C55.7536 24.3644 59.8558 24.4009 63.9567 24.3228C65.0474 24.302 64.8322 24.8669 64.883 25.4773C64.9378 26.1477 64.7694 26.4054 64.0008 26.3859C61.798 26.3286 59.5938 26.3664 57.3897 26.3664V26.3651Z" fill="black"/>
<path d="M29.4373 12.9555C28.5204 12.5025 27.8133 13.1911 27.0821 13.4644C26.498 13.6831 26.2227 13.553 25.9313 13.169C25.5891 12.7173 25.8978 12.5533 26.2761 12.2943C26.7399 11.9767 27.1102 11.5289 27.5887 11.2022C27.7839 11.0694 27.5112 11.003 27.3882 10.9562C27.5687 10.3821 28.1221 10.3678 28.5685 10.2949C29.3317 10.1687 29.5964 9.76126 29.5229 9.06228C29.4587 8.45962 29.6993 7.8088 29.2235 7.27252C28.495 6.91717 27.7825 7.32979 27.0647 7.34671C26.3643 7.36364 26.0355 7.12023 25.8724 6.52668C25.708 5.92532 26.0048 5.54654 26.5421 5.32526C27.4163 4.96731 28.3266 4.74343 29.2796 4.72C29.7087 4.70958 30.1297 4.67444 30.5428 4.55729C31.0734 4.25922 31.6188 4.53647 32.1561 4.53647C32.6119 4.53647 32.5143 4.93997 32.5157 5.21853C32.5237 6.64773 32.5798 8.08214 32.497 9.50744C32.4488 10.3405 32.7536 10.4746 33.5208 10.4655C35.1061 10.4459 36.6968 10.3535 38.282 10.5188C38.3342 11.0902 37.877 10.895 37.6164 10.9015C36.4348 10.9327 35.2491 10.839 34.0715 11.003C33.5957 11.0694 32.8926 11.0551 32.8993 11.5862C32.9046 12.0209 33.5529 12.2969 34.0542 12.44C34.4044 12.5403 34.7813 12.4635 35.1395 12.526C35.3989 12.5702 35.7063 12.5819 35.7317 12.9503C35.2371 13.3889 34.6223 13.2445 34.0662 13.2132C33.2147 13.1651 32.7643 13.5139 32.5197 14.278C31.969 15.9987 31.2004 17.6154 29.9399 18.9678C29.6178 19.3127 29.3224 19.7384 28.7249 19.5731C28.1662 19.2971 27.9683 19.8881 27.5807 20.0273C27.3053 20.1263 27.0581 20.3905 26.7386 20.1861C26.3924 19.9636 26.6049 19.6694 26.6557 19.3856C26.8616 18.2363 27.848 17.588 28.4522 16.6951C28.5979 16.4817 29.0417 16.3684 28.7262 15.9844C28.5765 15.7501 28.6647 15.5171 28.7784 15.3167C29.1967 14.58 29.3304 13.7729 29.4373 12.9568V12.9555Z" fill="black"/>
<path d="M10.4915 16.8877C10.2576 17.303 10.5249 17.6167 10.7508 17.9082C10.9245 18.1347 10.954 18.3287 10.9526 18.6163C10.9499 19.452 10.6906 19.8659 9.77234 19.5691C9.33525 19.7292 9.09733 19.4129 8.82866 19.1865C7.26743 17.8653 6.48415 16.0911 5.94814 14.2246C5.71824 13.4215 5.34264 13.1755 4.55267 13.2184C4.02201 13.247 3.44858 13.3551 2.96471 12.9932C3.00614 12.4036 3.50205 12.5585 3.84958 12.4973C4.26528 12.4244 4.75851 12.4687 4.7398 11.8543C4.72242 11.2581 4.419 10.9483 3.77874 10.9041C3.36838 10.8755 2.83238 11.0668 2.6145 10.4876C3.31625 10.4758 4.018 10.4576 4.71975 10.4524C6.05107 10.4433 6.04973 10.4472 6.04973 9.19503C6.04973 7.88688 6.07513 6.57743 6.04037 5.26927C6.02433 4.68744 6.22483 4.48048 6.825 4.49349C7.88364 4.51822 8.94628 4.42711 9.98755 4.69004C9.87393 4.88008 9.64402 4.7343 9.49699 4.84754C10.5182 4.8176 10.7013 5.07012 10.4086 5.99689C10.2014 6.65292 9.74962 7.04211 9.12807 7.28812C8.93826 8.44138 8.62816 9.61026 9.64001 10.5852C9.51303 10.9457 9.87527 10.8364 10.0009 10.8989C10.585 11.1852 10.7481 11.6629 10.6853 12.2331C10.6185 12.8435 10.1693 12.8683 9.66808 12.811C9.58387 12.8019 9.48095 12.936 9.38605 13.0036C8.87811 13.7313 9.33525 14.3574 9.60392 15.0056C9.86858 15.6473 10.5155 16.1172 10.4941 16.8877H10.4915Z" fill="black"/>
<path d="M35.6689 13.0088C35.5566 12.7797 35.328 12.7263 35.1262 12.7797C34.0662 13.0634 33.3217 12.371 32.4916 11.9753C32.0438 11.7618 32.3486 11.5002 32.5491 11.2724C33.1853 10.5526 34.0889 10.7022 34.8936 10.6489C35.9242 10.5799 36.9641 10.6593 38 10.684C38.143 10.6879 38.2272 10.6437 38.278 10.52C38.7539 12.1991 38.4531 13.8548 38.0855 15.5001C37.3424 18.831 35.5539 21.5567 32.9487 23.7981C32.8418 23.8905 32.6948 23.9387 32.5665 24.0077C32.0251 23.8423 31.7778 24.3213 31.4089 24.5218C30.8515 24.8238 30.3409 25.101 29.6352 25.0945C28.896 25.088 28.8906 24.8615 29.1205 24.3487C29.3037 23.9374 29.5322 23.6015 29.9466 23.3282C30.5681 22.9169 31.2458 22.5017 31.4731 21.7155C31.3461 21.3263 31.6388 21.1063 31.8594 20.8798C33.871 18.8219 35.1676 16.436 35.4309 13.5698C35.4496 13.3615 35.4911 13.1571 35.6675 13.0101L35.6689 13.0088Z" fill="black"/>
<path d="M67.1888 17.6192C67.1888 14.9651 67.2048 12.3098 67.1767 9.6557C67.1714 9.07647 67.2556 8.80833 67.956 8.82655C69.4878 8.8643 69.4865 8.82395 69.4865 10.3417C69.4865 15.3816 69.4678 20.4229 69.5052 25.4629C69.5106 26.2243 69.2793 26.4821 68.5348 26.3688C68.3249 26.3376 68.103 26.3389 67.8932 26.3688C67.3184 26.4508 67.1701 26.2165 67.1767 25.6711C67.2035 22.9871 67.1888 20.3031 67.1888 17.6192Z" fill="black"/>
<path d="M96.3507 17.6024C96.3507 20.2551 96.3347 22.9079 96.3628 25.5593C96.3694 26.1346 96.2906 26.4002 95.5928 26.3832C94.0436 26.3455 94.0423 26.3858 94.0423 24.8942C94.0423 19.8581 94.065 14.8207 94.0196 9.78468C94.0116 8.96465 94.2629 8.71603 95.0395 8.84229C95.1878 8.86572 95.3482 8.86572 95.4979 8.84229C96.1596 8.73686 96.3828 8.94772 96.3708 9.64671C96.3227 12.2982 96.3507 14.9509 96.3507 17.6037V17.6024Z" fill="black"/>
<path d="M2.61316 10.4863C3.03822 10.7414 3.5114 10.6321 3.95517 10.6139C5.02718 10.5709 4.9951 11.3155 5.04856 11.9949C5.10738 12.7342 4.58742 12.772 4.02334 12.7785C3.67046 12.7824 3.28417 12.6614 2.97406 12.9464C3.08233 15.1787 3.91908 17.1872 4.97237 19.1305C4.98975 19.5041 5.15015 19.8126 5.41615 20.0768C5.84522 20.5025 5.99225 21.0387 6.04839 21.6115C6.15399 22.6775 5.73962 23.0732 4.62885 22.9587C1.24308 19.6512 -0.175121 15.6265 0.017359 11.007C0.0347357 10.5839 0.169739 10.4238 0.602818 10.4447C1.27249 10.4772 1.94349 10.4746 2.6145 10.4863H2.61316Z" fill="black"/>
<path d="M30.5414 4.55848C30.0402 4.91903 29.4587 4.8956 28.8786 4.90081C27.979 4.90732 27.1757 5.22622 26.4151 5.66488C26.0476 5.87704 25.9179 6.14258 26.1491 6.5526C26.3363 6.88191 26.3897 7.12532 26.9618 7.1097C27.7825 7.08887 28.6113 6.53307 29.4373 7.05894C29.3104 7.40257 28.9949 7.4286 28.6928 7.47546C25.0932 8.02736 22.3089 9.85096 20.1569 12.6625C19.4484 13.588 19.0849 13.5958 18.3337 12.6833C17.8378 12.082 17.2964 11.5145 16.8887 10.8467C16.2872 10.1087 16.195 9.21446 16.0827 8.32934C15.9851 7.56397 16.2779 7.35831 17.1053 7.5835C17.6907 8.03647 18.2922 8.47252 18.8563 8.94892C19.2212 9.25741 19.4137 9.05175 19.681 8.81746C21.928 6.83505 24.4676 5.39543 27.4845 4.83182C28.4977 4.64308 29.5042 4.45695 30.5414 4.55848Z" fill="black"/>
<path d="M17.1053 7.58366C16.4436 7.59147 16.1349 7.62011 16.4035 8.51564C16.6321 9.2758 16.6749 10.0945 17.128 10.7987C16.6923 10.9289 16.437 10.6113 16.1723 10.3926C14.2101 8.76946 12.0006 7.70211 9.40611 7.46521C9.17219 7.44438 8.90218 7.42356 8.8407 7.11377C9.41546 6.83782 9.96751 6.61003 10.1734 5.8772C10.3805 5.13787 10.3084 4.79684 9.44754 4.89316C9.33393 4.90618 9.21496 4.87884 9.08932 4.7695C9.38873 4.74347 9.68814 4.71744 9.98622 4.69141C12.6275 5.02723 15.0495 5.8772 17.1053 7.58366Z" fill="black"/>
<path d="M4.6275 22.9585C5.98021 22.5069 6.2315 21.3888 5.23836 20.2563C4.97504 19.9556 4.57537 19.7135 4.74112 19.2163C5.10336 19.2163 5.25841 19.5014 5.44821 19.7213C6.83567 21.3354 8.47576 22.6331 10.426 23.5547C10.7147 23.6914 11.0702 23.7942 11.1036 24.2003C11.0809 24.2745 11.0128 24.3799 11.0422 24.419C11.9177 25.6087 11.8161 26.0252 10.5128 26.542C8.6776 26.0564 7.12707 25.0633 5.69282 23.8957C5.33059 23.6002 4.85607 23.4063 4.62884 22.9598L4.6275 22.9585Z" fill="black"/>
<path d="M20.9482 2.24552C20.9629 2.3861 19.5032 3.99623 19.3415 4.01836C19.1985 4.03788 17.4381 2.32102 17.4327 2.15701C17.4287 2.04116 19.0461 0.514334 19.1864 0.501318C19.3375 0.486999 20.9295 2.06459 20.9482 2.24682V2.24552Z" fill="black"/>
</g>
<defs>
<clipPath id="clip0_179_2143">
<rect width="153" height="27" fill="white" transform="translate(0 0.5)"/>
</clipPath>
</defs>
</svg>
